<svg width="129" height="247" viewBox="0 0 129 247" fill="none" xmlns="http://www.w3.org/2000/svg">
<g clip-path="url(#clip0_1064_2122)">
<rect width="129" height="247" fill="white"/>
<path d="M22 122.486V108.256C22 105.593 22.3546 102.941 23.0546 100.372L25.6284 90.9224C26.8727 86.3544 29.1804 82.1456 32.363 78.6404L36.2961 74.3086C41.3084 68.7881 44.0852 61.5988 44.0852 54.1423V12C44.0852 11.4477 44.533 11 45.0852 11H87.2557C87.808 11 88.2557 11.4477 88.2557 12V55.6637C88.2557 63.3631 91.5155 70.7026 97.2279 75.8649C102.94 81.0271 106.2 88.3666 106.2 96.066V120.459M106.2 169.108V204.681C106.2 207.971 105.659 211.237 104.599 214.351L102.679 219.989C100.533 226.292 95.7417 231.343 89.5609 233.819C85.9633 235.26 82.1235 236 78.2481 236H44.7199C42.3935 236 40.0809 235.643 37.863 234.941C28.4186 231.951 22 223.186 22 213.28V167.081" stroke="#17A252" stroke-width="22"/>
<path d="M22.9415 157.187L-0.371081 120.844L46.0028 120.497L22.9415 157.187Z" fill="#17A252"/>
<path d="M105 133L128.383 169H81.6173L105 133Z" fill="#17A252"/>
</g>
<defs>
<clipPath id="clip0_1064_2122">
<rect width="129" height="247" fill="white"/>
</clipPath>
</defs>
</svg>
