<svg width="129" height="247" viewBox="0 0 129 247" fill="none" xmlns="http://www.w3.org/2000/svg">
<g clip-path="url(#clip0_1064_2120)">
<rect width="129" height="247" fill="white"/>
<path d="M44.9084 236H64H79.1357C82.3272 236 85.4892 235.389 88.4509 234.2C95.2198 231.483 100.465 225.945 102.811 219.038L104.406 214.341C105.462 211.234 106 207.974 106 204.693V120.459V96.0502C106 88.3598 102.749 81.0279 97.0492 75.8649C91.3496 70.7019 88.0984 63.3699 88.0984 55.6796V39.3784M22 209.649V167.081V108.247C22 105.59 22.353 102.944 23.0498 100.38L25.6219 90.9147C26.8618 86.3516 29.1629 82.1462 32.3374 78.6415L36.2675 74.3027C41.265 68.7853 44.0328 61.607 44.0328 54.1627V12C44.0328 11.4477 44.4805 11 45.0328 11H66.0656H67.8166" stroke="#17A252" stroke-width="22"/>
<path d="M29.6615 223.967L-2.53353 202.73L45.2195 179.699L29.6615 223.967Z" fill="#17A252"/>
<path d="M88.9342 7L113.992 42.0314H63.8765L88.9342 7Z" fill="#17A252"/>
</g>
<defs>
<clipPath id="clip0_1064_2120">
<rect width="129" height="247" fill="white"/>
</clipPath>
</defs>
</svg>
