<svg width="129" height="282" viewBox="0 0 129 282" fill="none" xmlns="http://www.w3.org/2000/svg">
<rect width="129" height="247" transform="translate(0 16.6475)" fill="white"/>
<path d="M84.1148 252.647L86.4976 251.693C94.6228 248.439 100.922 241.799 103.743 233.513L104.599 230.998C105.659 227.885 106.2 224.618 106.2 221.329V137.107V112.713C106.2 105.014 102.94 97.6746 97.2279 92.5123C91.5155 87.3501 88.2557 80.0106 88.2557 72.3112V28.6475C88.2557 28.0952 87.808 27.6475 87.2557 27.6475H66.1705M44.0852 55.0123V70.7898C44.0852 78.2463 41.3084 85.4356 36.2961 90.9561L32.363 95.2879C29.1804 98.7931 26.8727 103.002 25.6284 107.57L23.0546 117.019C22.3546 119.589 22 122.24 22 124.903V183.729V223.155C22 233.761 28.0394 243.442 37.5654 248.105C40.9562 249.764 44.6496 250.716 48.4203 250.9L53.0574 251.127" stroke="#17A252" stroke-width="22"/>
<path d="M82.1156 253.145L51.2789 281.271V225.003L82.1156 253.145Z" fill="#17A252"/>
<path d="M37 28.1338L67.8367 -0.000102997V56.2678L37 28.1338Z" fill="#17A252"/>
</svg>
