<svg width="129" height="247" viewBox="0 0 129 247" fill="none" xmlns="http://www.w3.org/2000/svg">
<g clip-path="url(#clip0_1064_2118)">
<rect width="129" height="247" fill="white"/>
<path d="M106.2 146.811V96.066C106.2 88.3666 102.94 81.0271 97.2279 75.8649C91.5155 70.7026 88.2557 63.3631 88.2557 55.6638V12C88.2557 11.4477 87.808 11 87.2557 11H45.0852C44.533 11 44.0852 11.4477 44.0852 12V56.5292C44.0852 62.3783 41.5702 67.9449 37.1809 71.8108M106.2 193.432V204.681C106.2 207.971 105.659 211.237 104.599 214.351L103.012 219.011C100.655 225.935 95.3914 231.484 88.6017 234.203C85.6377 235.39 82.4742 236 79.2813 236H50.63C45.573 236 40.6062 234.661 36.2349 232.118C27.4219 226.992 22 217.565 22 207.37V108.297" stroke="#17A252" stroke-width="22"/>
<path d="M20.0953 94.3009L18.6497 45L58.8403 95.2401L20.0953 94.3009Z" fill="#17A252"/>
<path d="M106.037 157L132.049 193.75H80.0242L106.037 157Z" fill="#17A252"/>
</g>
<defs>
<clipPath id="clip0_1064_2118">
<rect width="129" height="247" fill="white"/>
</clipPath>
</defs>
</svg>
