<svg width="129" height="247" viewBox="0 0 129 247" fill="none" xmlns="http://www.w3.org/2000/svg">
<g clip-path="url(#clip0_1064_2121)">
<rect width="129" height="247" fill="white"/>
<path d="M22 138.703V108.256C22 105.593 22.3546 102.941 23.0545 100.372L25.6283 90.9223C26.8725 86.3543 29.1802 82.1457 32.3627 78.6404L36.2958 74.3085C41.3079 68.7881 44.0847 61.5989 44.0847 54.1425V12C44.0847 11.4477 44.5324 11 45.0847 11H87.2541C87.8064 11 88.2541 11.4477 88.2541 12V55.1428C88.2541 63.21 91.5031 70.9373 97.268 76.5807L99.9675 79.2233C100.44 79.6859 100.866 80.1942 101.238 80.7409L102.058 81.9459M106.198 134.649V204.682C106.198 207.971 105.657 211.237 104.597 214.351L103.01 219.011C100.653 225.935 95.3895 231.484 88.6001 234.203C85.6361 235.39 82.4726 236 79.2798 236H50.5065C45.4445 236 40.4738 234.652 36.1052 232.095C27.3688 226.981 22 217.617 22 207.494V185.324" stroke="#17A252" stroke-width="22"/>
<path d="M23.0611 173.403L-0.354943 137.06L46.2247 136.713L23.0611 173.403Z" fill="#17A252"/>
<path d="M105.71 98.1616L129 134.679H82.4197L105.71 98.1616Z" fill="#17A252"/>
</g>
<defs>
<clipPath id="clip0_1064_2121">
<rect width="129" height="247" fill="white"/>
</clipPath>
</defs>
</svg>
